<svg xmlns="http://www.w3.org/2000/svg" xmlns:xlink="http://www.w3.org/1999/xlink" width="500" zoomAndPan="magnify" viewBox="0 0 375 374.999991" height="500" preserveAspectRatio="xMidYMid meet" version="1.0"><defs><g/><clipPath id="e44f9d0981"><path d="M 17 24 L 358 24 L 358 350.917969 L 17 350.917969 Z M 17 24 " clip-rule="nonzero"/></clipPath><clipPath id="97b8e7fe50"><path d="M 34.929688 24.082031 L 340.070312 24.082031 C 344.644531 24.082031 349.03125 25.898438 352.265625 29.132812 C 355.5 32.371094 357.320312 36.757812 357.320312 41.332031 L 357.320312 333.667969 C 357.320312 338.242188 355.5 342.628906 352.265625 345.867188 C 349.03125 349.101562 344.644531 350.917969 340.070312 350.917969 L 34.929688 350.917969 C 30.355469 350.917969 25.96875 349.101562 22.734375 345.867188 C 19.5 342.628906 17.679688 338.242188 17.679688 333.667969 L 17.679688 41.332031 C 17.679688 36.757812 19.5 32.371094 22.734375 29.132812 C 25.96875 25.898438 30.355469 24.082031 34.929688 24.082031 Z M 34.929688 24.082031 " clip-rule="nonzero"/></clipPath></defs><g clip-path="url(#e44f9d0981)"><g clip-path="url(#97b8e7fe50)"><path fill="#2b7a78" d="M 17.679688 24.082031 L 357.285156 24.082031 L 357.285156 350.917969 L 17.679688 350.917969 Z M 17.679688 24.082031 " fill-opacity="1" fill-rule="nonzero"/></g></g><g fill="#ffffff" fill-opacity="1"><g transform="translate(40.61615, 325.268137)"><g><path d="M 98.0625 1.640625 C 83.03125 1.640625 69.460938 -2.0625 57.359375 -9.46875 C 45.265625 -16.882812 35.734375 -27.617188 28.765625 -41.671875 C 21.796875 -55.734375 18.3125 -72.351562 18.3125 -91.53125 C 18.3125 -124.644531 25.390625 -155.3125 39.546875 -183.53125 C 53.710938 -211.757812 74.632812 -234.425781 102.3125 -251.53125 C 129.988281 -268.632812 163.222656 -277.1875 202.015625 -277.1875 C 212.035156 -277.1875 222.765625 -276.421875 234.203125 -274.890625 C 245.640625 -273.367188 256.046875 -271.082031 265.421875 -268.03125 C 271.523438 -266.289062 274.578125 -261.9375 274.578125 -254.96875 C 274.578125 -249.300781 272.453125 -243.957031 268.203125 -238.9375 C 263.953125 -233.925781 258.992188 -231.421875 253.328125 -231.421875 C 251.585938 -231.421875 250.28125 -231.53125 249.40625 -231.75 C 238.070312 -234.363281 228.375 -236.269531 220.3125 -237.46875 C 212.25 -238.664062 203.75 -239.265625 194.8125 -239.265625 C 167.132812 -239.265625 143.597656 -232.5625 124.203125 -219.15625 C 104.816406 -205.757812 90.328125 -188.054688 80.734375 -166.046875 C 71.148438 -144.035156 66.359375 -120.285156 66.359375 -94.796875 C 66.359375 -76.273438 70.003906 -61.945312 77.296875 -51.8125 C 84.597656 -41.675781 94.132812 -36.609375 105.90625 -36.609375 C 119.195312 -36.609375 130.851562 -42.054688 140.875 -52.953125 C 150.90625 -63.847656 160.0625 -81.5 168.34375 -105.90625 C 176.625 -130.3125 184.796875 -163.4375 192.859375 -205.28125 C 194.160156 -211.382812 196.769531 -215.523438 200.6875 -217.703125 C 204.613281 -219.878906 209.847656 -220.96875 216.390625 -220.96875 C 231.859375 -220.96875 239.59375 -215.957031 239.59375 -205.9375 C 239.59375 -204.1875 239.269531 -202.003906 238.625 -199.390625 C 232.957031 -178.253906 227.78125 -154.882812 223.09375 -129.28125 C 218.40625 -103.675781 216.0625 -84.226562 216.0625 -70.9375 C 216.0625 -59.164062 217.804688 -50.609375 221.296875 -45.265625 C 224.785156 -39.929688 230.125 -37.265625 237.3125 -37.265625 C 244.28125 -37.265625 250.925781 -39.601562 257.25 -44.28125 C 263.570312 -48.96875 271.523438 -56.976562 281.109375 -68.3125 C 283.722656 -71.363281 286.664062 -72.890625 289.9375 -72.890625 C 292.769531 -72.890625 295.003906 -71.582031 296.640625 -68.96875 C 298.273438 -66.351562 299.09375 -62.757812 299.09375 -58.1875 C 299.09375 -49.6875 297.019531 -42.929688 292.875 -37.921875 C 282.195312 -25.054688 271.738281 -15.242188 261.5 -8.484375 C 251.257812 -1.734375 238.726562 1.640625 223.90625 1.640625 C 208.65625 1.640625 196.34375 -2.769531 186.96875 -11.59375 C 177.601562 -20.425781 171.722656 -32.90625 169.328125 -49.03125 C 153.191406 -15.25 129.4375 1.640625 98.0625 1.640625 Z M 98.0625 1.640625 "/></g></g></g></svg>